# xmcd
#
# Track frame offsets:
#	225
#	10986
#	22146
#	34762
#	44985
#	54330
#	67253
#	77659
#	90803
#	102325
#	113422
#	124560
#	135211
#	146592
#	156992
#	170664
#	183022
#	196557
#	208891
#	221116
#	232336
#	244748
#	256029
#	265584
#	277401
#	288600
#	300638
#	310623
#	322808
#
# Disc length: 4464 seconds
#
# Revision: 0
# Processed by: cddbd v1.5.2PL0 Copyright (c) Steve Scherf et al.
# Submitted via: audiograbber 1.83.01
#
DISCID=a0116d1d
DTITLE=Joan Regan - Soft Sands - Decca Singles
DYEAR=1900
DGENRE=
TTITLE0=Wishing Ring
TTITLE1=I'll Always Be Thinking Of You
TTITLE2=Merry Go Rounds And Swings
TTITLE3=Red, Red, Red
TTITLE4=Wait For Me, Darling
TTITLE5=If I Give My Heart To You
TTITLE6=Faded Flowers
TTITLE7=Can This Be Love
TTITLE8=Nobody Danced With Me
TTITLE9=Prize Of Gold
TTITLE10=When You're In Love
TTITLE11=Too Many Heartaches
TTITLE12=Don't Be Afraid Of Love
TTITLE13=If You Learn To Love Each Other
TTITLE14=Just Say You Love Her
TTITLE15=The Shepherd Boy
TTITLE16=The Rose And The Flame
TTITLE17=Croce Di Oro
TTITLE18=Love And Marriage
TTITLE19=Honestly
TTITLE20=Don't Take Me For Granted
TTITLE21=The Boy With The Magic Guitar
TTITLE22=I'd Never Leave You Baby
TTITLE23=Gone
TTITLE24=Make Me A Child Again
TTITLE25=Cross My Ever-Loving Heart
TTITLE26=Nearer To Me
TTITLE27=Speak For Yourself, John
TTITLE28=Soft Sands
EXTD=
EXTT0=
EXTT1=
EXTT2=
EXTT3=
EXTT4=
EXTT5=
EXTT6=
EXTT7=
EXTT8=
EXTT9=
EXTT10=
EXTT11=
EXTT12=
EXTT13=
EXTT14=
EXTT15=
EXTT16=
EXTT17=
EXTT18=
EXTT19=
EXTT20=
EXTT21=
EXTT22=
EXTT23=
EXTT24=
EXTT25=
EXTT26=
EXTT27=
EXTT28=
PLAYORDER=
